<?xml version="1.0" encoding="iso-8859-1"?>
<!-- Generator: Adobe Illustrator 19.0.0, SVG Export Plug-In . SVG Version: 6.00 Build 0)  -->
<svg version="1.1" id="Capa_1" xmlns="http://www.w3.org/2000/svg" xmlns:xlink="http://www.w3.org/1999/xlink" x="0px" y="0px"
	 viewBox="0 0 512 512" style="enable-background:new 0 0 512 512;" xml:space="preserve">
<path style="fill:#FF7459;" d="M358.284,30h65.858c4.12,0,6.472,4.704,4,8l-24,32l24,32c2.472,3.296,0.12,8-4,8h-65.858
	c-9.055,0-17.739-3.597-24.142-10l0,0c-6.403-6.403-15.087-10-24.142-10h-53.996V10H310c9.055,0,17.739,3.597,24.142,10l0,0
	C340.545,26.403,349.229,30,358.284,30z"/>
<path style="fill:#FC5B52;" d="M428.142,102c2.472,3.296,0.12,8-4,8h-18.5l-30-40l30-40h18.5c4.12,0,6.472,4.704,4,8l-24,32
	L428.142,102z"/>
<path style="fill:#FFB750;" d="M263.5,7.5v210c0,4.142-3.357,7.5-7.5,7.5s-7.5-3.358-7.5-7.5V7.5c0-4.142,3.357-7.5,7.5-7.5
	S263.5,3.358,263.5,7.5z"/>
<path style="fill:#FFE766;" d="M497,472v40H15v-40c0-5.523,4.477-10,10-10h21v-40c0-5.523,4.477-10,10-10h34v-40
	c0-5.523,4.477-10,10-10h20v-40c0-5.523,4.477-10,10-10h30v-40c0-5.523,4.477-10,10-10h30v-40c0-5.523,4.477-10,10-10h92
	c5.523,0,10,4.477,10,10v40h30c5.523,0,10,4.477,10,10v40h30c5.523,0,10,4.477,10,10v40h20c5.523,0,10,4.477,10,10v40h34
	c5.523,0,10,4.477,10,10v40h21C492.523,462,497,466.477,497,472z"/>
<path style="fill:#FFD35D;" d="M282.5,212H302c5.523,0,10,4.477,10,10v63.667h-19.5V222C292.5,216.477,288.023,212,282.5,212z"/>
<path style="fill:#FFB750;" d="M497,472v40H15v-40c0-5.523,4.477-10,10-10h21v-40c0-5.523,4.477-10,10-10h34v-40
	c0-5.523,4.477-10,10-10h20v-40c0-5.523,4.477-10,10-10h30v-40c0-5.523,4.477-10,10-10h172c5.523,0,10,4.477,10,10v40h30
	c5.523,0,10,4.477,10,10v40h20c5.523,0,10,4.477,10,10v40h34c5.523,0,10,4.477,10,10v40h21C492.523,462,497,466.477,497,472z"/>
<path style="fill:#FFA644;" d="M322.5,262H342c5.523,0,10,4.477,10,10v59.667h-19.5V272C332.5,266.477,328.023,262,322.5,262z"/>
<path style="fill:#FF8742;" d="M497,472v40H15v-40c0-5.523,4.477-10,10-10h21v-40c0-5.523,4.477-10,10-10h34v-40
	c0-5.523,4.477-10,10-10h20v-40c0-5.523,4.477-10,10-10h252c5.523,0,10,4.477,10,10v40h20c5.523,0,10,4.477,10,10v40h34
	c5.523,0,10,4.477,10,10v40h21C492.523,462,497,466.477,497,472z"/>
<path style="fill:#FF7131;" d="M497,472v40H15v-40c0-5.523,4.477-10,10-10h21v-40c0-5.523,4.477-10,10-10h34v-40
	c0-5.523,4.477-10,10-10h272.5v-40c0-5.523-4.477-10-10-10H382c5.523,0,10,4.477,10,10v40h20c5.523,0,10,4.477,10,10v40h34
	c5.523,0,10,4.477,10,10v40h21C492.523,462,497,466.477,497,472z"/>
<path style="fill:#F36231;" d="M392.5,362H412c5.523,0,10,4.477,10,10v58.333h-19.5V372C402.5,366.477,398.023,362,392.5,362z"/>
<path style="fill:#FC5B52;" d="M497,472v40H15v-40c0-5.523,4.477-10,10-10h21v-40c0-5.523,4.477-10,10-10h400
	c5.523,0,10,4.477,10,10v40h21C492.523,462,497,466.477,497,472z"/>
<path style="fill:#EB544E;" d="M497,472v40H15v-40c0-5.523,4.477-10,10-10h421.5v-40c0-5.523-4.477-10-10-10H456
	c5.523,0,10,4.477,10,10v40h21C492.523,462,497,466.477,497,472z"/>
<g>
	<path style="fill:#D64C4C;" d="M497,472v40h-19.5v-40c0-5.523-4.477-10-10-10H487C492.523,462,497,466.477,497,472z"/>
	<path style="fill:#D64C4C;" d="M512,504.5c0,4.142-3.357,7.5-7.5,7.5H7.5c-4.143,0-7.5-3.358-7.5-7.5s3.357-7.5,7.5-7.5h497
		C508.643,497,512,500.358,512,504.5z"/>
</g>
<g>
</g>
<g>
</g>
<g>
</g>
<g>
</g>
<g>
</g>
<g>
</g>
<g>
</g>
<g>
</g>
<g>
</g>
<g>
</g>
<g>
</g>
<g>
</g>
<g>
</g>
<g>
</g>
<g>
</g>
</svg>
